<svg xmlns="http://www.w3.org/2000/svg" viewBox="0 0 640 430" role="img" aria-label="图 3. 任务通过矩阵">
<style>
text { font-family: Arial, 'Noto Sans CJK SC', 'Microsoft YaHei', sans-serif; }
.title { fill: #1B1A18; font-size: 18px; font-weight: 700; }
.subtitle, .tick { fill: #66615A; font-size: 12px; }
.label { fill: #1B1A18; font-size: 13px; }
.value { fill: #1B1A18; font-size: 12px; font-family: 'Cascadia Mono', Consolas, monospace; }
.grid { stroke: #D8D2C7; stroke-width: 1; shape-rendering: crispEdges; }
.axis { stroke: #1B1A18; stroke-width: 1; shape-rendering: crispEdges; }
</style>
<rect width="640" height="430" fill="#FFFFFF" />
<text class="title" x="32" y="32">图 3. 任务通过矩阵</text>
<text class="subtitle" x="32" y="54">绿色表示通过，红色表示失败；矩阵保留任务粒度，适合放在论文附录。</text>
<text class="label" x="321.0" y="58" text-anchor="middle">当前 workflow</text>
<text class="label" x="491.0" y="58" text-anchor="middle">0.3.9 基线</text>
<text class="label" x="42" y="98" >API 缓存 TTL</text>
<rect x="250" y="76" width="142" height="34" rx="2" fill="#28745C" />
<text x="321.0" y="98" text-anchor="middle" fill="#FFFFFF" font-family="Arial, sans-serif" font-size="12" font-weight="700">通过</text>
<rect x="420" y="76" width="142" height="34" rx="2" fill="#A33A32" />
<text x="491.0" y="98" text-anchor="middle" fill="#FFFFFF" font-family="Arial, sans-serif" font-size="12" font-weight="700">失败</text>
<text class="label" x="42" y="141" >修复 median</text>
<rect x="250" y="119" width="142" height="34" rx="2" fill="#28745C" />
<text x="321.0" y="141" text-anchor="middle" fill="#FFFFFF" font-family="Arial, sans-serif" font-size="12" font-weight="700">通过</text>
<rect x="420" y="119" width="142" height="34" rx="2" fill="#A33A32" />
<text x="491.0" y="141" text-anchor="middle" fill="#FFFFFF" font-family="Arial, sans-serif" font-size="12" font-weight="700">失败</text>
<text class="label" x="42" y="184" >完整流程</text>
<rect x="250" y="162" width="142" height="34" rx="2" fill="#28745C" />
<text x="321.0" y="184" text-anchor="middle" fill="#FFFFFF" font-family="Arial, sans-serif" font-size="12" font-weight="700">通过</text>
<rect x="420" y="162" width="142" height="34" rx="2" fill="#28745C" />
<text x="491.0" y="184" text-anchor="middle" fill="#FFFFFF" font-family="Arial, sans-serif" font-size="12" font-weight="700">通过</text>
<text class="label" x="42" y="227" >性能去重</text>
<rect x="250" y="205" width="142" height="34" rx="2" fill="#28745C" />
<text x="321.0" y="227" text-anchor="middle" fill="#FFFFFF" font-family="Arial, sans-serif" font-size="12" font-weight="700">通过</text>
<rect x="420" y="205" width="142" height="34" rx="2" fill="#A33A32" />
<text x="491.0" y="227" text-anchor="middle" fill="#FFFFFF" font-family="Arial, sans-serif" font-size="12" font-weight="700">失败</text>
<text class="label" x="42" y="270" >重构 counter</text>
<rect x="250" y="248" width="142" height="34" rx="2" fill="#28745C" />
<text x="321.0" y="270" text-anchor="middle" fill="#FFFFFF" font-family="Arial, sans-serif" font-size="12" font-weight="700">通过</text>
<rect x="420" y="248" width="142" height="34" rx="2" fill="#28745C" />
<text x="491.0" y="270" text-anchor="middle" fill="#FFFFFF" font-family="Arial, sans-serif" font-size="12" font-weight="700">通过</text>
<text class="label" x="42" y="313" >健壮配置</text>
<rect x="250" y="291" width="142" height="34" rx="2" fill="#A33A32" />
<text x="321.0" y="313" text-anchor="middle" fill="#FFFFFF" font-family="Arial, sans-serif" font-size="12" font-weight="700">失败</text>
<rect x="420" y="291" width="142" height="34" rx="2" fill="#A33A32" />
<text x="491.0" y="313" text-anchor="middle" fill="#FFFFFF" font-family="Arial, sans-serif" font-size="12" font-weight="700">失败</text>
</svg>